<?xml version="1.0" encoding="utf-8"?>
<svg viewBox="0 0 200 200" xmlns="http://www.w3.org/2000/svg">
  <g id="svgg" style="transform-origin: 230.019px 177.877px;" transform="matrix(1.171247005463, 0, 0, 1.171247005463, -130.060542831088, -77.933490518357)">
    <path id="path0" d="M 223.043 96.123 C 161.235 101.516 127.172 171.746 161.428 223.161 C 200.112 281.222 289.045 268.03 308.853 201.291 C 325.13 146.45 280.011 91.152 223.043 96.123 M 236.558 114.478 C 284.772 119.756 309.746 173.423 282.911 214.087 C 266.584 238.828 231.163 248.987 204.356 236.617 L 202.461 235.742 L 212.813 235.497 C 234.584 234.982 249.67 230.616 260.743 221.624 C 262.676 220.054 264.354 217.875 263.542 217.987 C 263.248 218.028 250.835 218.04 235.957 218.015 L 208.906 217.969 L 208.906 212.5 L 208.906 207.031 L 199.141 207.031 L 189.375 207.031 L 189.36 217.48 L 189.345 227.93 L 184.77 223.229 C 166.94 204.907 161.288 179.133 170.048 156.092 C 180.525 128.535 207.991 111.35 236.558 114.478 M 202.73 131.62 C 198.579 132.806 193.998 136.532 192.089 140.274 C 189.769 144.822 189.649 145.566 189.468 156.543 L 189.299 166.797 L 199.103 166.797 L 208.906 166.797 L 208.906 157.813 L 208.906 148.828 L 209.98 148.779 C 210.571 148.752 224.59 148.708 241.133 148.681 L 271.211 148.633 L 271.333 147.153 C 271.901 140.268 266.673 133.309 259.492 131.39 C 256.103 130.485 205.991 130.688 202.73 131.62 M 189.375 183.593 L 189.375 193.749 L 230.391 193.722 L 271.406 193.694 L 271.406 183.566 L 271.406 173.438 L 230.391 173.438 L 189.375 173.438 L 189.375 183.593" fill-rule="evenodd" stroke="none" style="fill: rgb(255, 255, 255);"/>
  </g>
</svg>